<?xml version="1.0" encoding="UTF-8"?>
<svg
   xmlns="http://www.w3.org/2000/svg"
   width="59"
   height="58"
   viewBox="0 0 59 58">
  <path
     fill="#2b62a9"
     stroke="none"
     d="M 41.440323,23.577488 C 36.821127,29.550522 32.255619,35.465302 27.561618,41.546541 23.411666,38.268237 19.398213,35.097757 15.288844,31.85151 9.4976893,38.699375 3.718513,45.533067 -2.182688,52.511053 -3.9682196,51.198362 -5.6342108,49.973544 -7.4243921,48.657429 0.01768486,39.984842 7.3492032,31.441102 14.726268,22.844275 c 3.642558,2.848274 7.250298,5.669318 10.92755,8.544718 1.911488,-2.575448 3.683281,-4.959486 5.451461,-7.345712 3.282551,-4.429898 6.543007,-8.873381 9.864011,-13.27958 0.550976,-0.731026 0.539572,-1.1176906 -0.326682,-1.5583016 -1.039033,-0.528488 -2.016877,-1.155307 -3.218527,-1.854327 5.179197,-2.345278 10.217675,-4.626822 15.411011,-6.97850202 V 16.214565 c -1.478418,-0.803992 -2.8091,-1.527633 -4.241617,-2.306663 -2.375609,3.216111 -4.73755,6.413717 -7.153152,9.669586 z"
   />
  <path
     fill="#217867"
     stroke="none"
     d="m 30.065551,40.763652 c 1.404629,-1.844882 2.806993,-3.69117 4.214526,-5.534235 1.385976,-1.814856 2.777192,-3.626452 4.247538,-5.40576 1.070654,1.443226 2.059874,2.852728 3.07906,4.332301 1.190916,1.638522 2.351876,3.206972 3.535644,4.845666 1.265689,1.771996 2.508529,3.473753 3.758953,5.233231 0.07534,0.100834 0.143112,0.143966 0.208373,0.177882 -0.0025,-0.0092 -0.02088,-1.15e-4 0.007,0.06829 0.789771,1.078473 1.551709,2.088546 2.336442,3.168049 1.408983,1.886092 2.795188,4.009265 4.188141,5.894199 0.847774,1.221433 1.6888,2.374571 2.73713,3.811984 -3.979511,0 -7.658778,0 -11.446759,-0.02103 -1.38763,-0.0193 -2.671926,0.04393 -3.942696,-0.04718 -0.484558,-0.03475 -1.068164,-0.327253 -1.3791,-0.67066 -0.6812,-0.752365 -1.216998,-1.612334 -1.834375,-2.498239 -0.936726,-1.289175 -1.851257,-2.508472 -2.792511,-3.796282 -1.951616,-2.633992 -3.876537,-5.506014 -5.820763,-8.141372 -0.378391,-0.518866 -0.737479,-0.967854 -1.096552,-1.416844 z"
   />
  <path
     fill="#217867"
     stroke="none"
     d="m 7.6190242,43.908607 c 2.6431448,-3.108415 5.2862748,-6.216837 7.9798398,-9.384563 2.359493,1.864684 4.624045,3.654339 6.903219,5.599755 0.04439,3.24957 0.07414,6.343388 0.08343,9.535441 -0.01332,2.344466 -0.04521,4.591651 0.02092,6.836466 0.02513,0.853161 -0.302942,1.068253 -1.203159,1.06022 -4.153709,-0.03701 -8.308735,-0.05388 -12.4617265,0.0079 -1.1624127,0.0173 -1.5333104,-0.240025 -1.4911464,-1.335807 0.1172579,-3.047253 0.090897,-6.099033 0.1372176,-9.248507 0.010773,-0.758491 0.00564,-1.417516 0.02472,-2.156906 0.018452,-0.358271 0.012572,-0.636137 0.0067,-0.914016 z"
   />
  <path
     fill="#217867"
     stroke="none"
     d="m 22.596717,26.576613 c -2.678432,-2.103451 -5.356855,-4.206903 -8.169598,-6.41584 -2.256808,2.686114 -4.4436332,5.288939 -6.7345455,7.898508 -0.1040734,0.0068 -0.1976389,-0.02271 -0.2124156,-0.02482 -0.014785,-0.0021 -0.024535,0.02348 -0.00529,-0.06388 0.020921,-4.166049 0.022605,-8.244726 0.063591,-12.418338 0.032664,-2.22414 0.026034,-11.9451296 0.1003063,-14.1362416 4.9347268,-0.07666 9.7885498,-0.09181 14.6423888,-0.101702 0.06319,-1.29e-4 0.126546,0.06675 0.342979,0.188513 0,1.6287 0,10.9338396 -0.01222,12.7446956 -0.0027,1.086001 0.0066,2.074497 -7e-4,3.160697 -0.01603,3.121275 -0.01523,6.144847 -0.01446,9.168409 z"
   />
</svg>
