<svg
  width="244.75"
  height="51.25"
  viewBox="0 0 979 205"
  xmlns="http://www.w3.org/2000/svg"
>
  <g transform="translate(-1517 -836)">
    <path
        d="M1780.46 963.387 1773.99 963.859C1753.72 964.939 1738.16 968.473 1727.29 974.461 1717.52 979.796 1712.64 987.624 1712.64 997.943 1712.64 1004.68 1713.78 1009.7 1716.07 1013.01 1721.37 1018.13 1728.19 1020.69 1736.53 1020.69 1745.09 1020.69 1753.29 1018.66 1761.12 1014.61 1769.37 1010.36 1775.02 1005.48 1778.09 999.969 1779.67 996.405 1780.46 993.289 1780.46 990.62ZM1917.84 914.216C1910.4 914.216 1903.39 916.876 1896.79 922.196 1891.78 926.306 1888.2 931.139 1886.04 936.696 1883.09 944.233 1881.62 954.527 1881.62 967.576 1881.62 984.373 1882.57 996.093 1884.48 1002.74 1889.34 1011.32 1895.76 1017.25 1903.74 1020.53 1908.25 1022.38 1913.23 1023.3 1918.67 1023.3 1929.63 1023.3 1938.85 1018.31 1946.34 1008.33 1954.42 997.696 1958.46 983.758 1958.46 966.513 1958.46 949.461 1954.81 936.046 1947.53 926.267 1937.14 918.233 1927.25 914.216 1917.84 914.216ZM1747.56 895.882C1762.02 895.882 1774.16 899.053 1783.99 905.393 1796.09 913.227 1802.13 928.179 1802.13 950.248L1802.13 1004.68C1802.13 1014.25 1803.82 1019.04 1807.18 1019.04 1810.67 1019.04 1814.7 1014.98 1819.28 1006.87L1829.28 1017.9C1823.1 1032.98 1814.58 1040.52 1803.74 1040.52 1789.5 1040.52 1781.98 1032.05 1781.19 1015.11 1773.6 1032.05 1757.17 1040.52 1731.91 1040.52 1717.27 1040.52 1705.8 1035.29 1697.5 1024.85 1691.8 1017.58 1688.95 1008.93 1688.95 998.89 1688.95 982.923 1696.9 970.46 1712.8 961.5 1727.74 952.971 1747.66 948.106 1772.55 946.906L1780.46 946.541 1780.46 945.149C1780.46 934.319 1778.15 926.456 1773.52 921.561 1771.17 919.085 1767.79 916.966 1763.36 915.204 1758.01 913.099 1752.5 912.046 1746.84 912.046 1737.64 912.046 1730.39 913.347 1725.1 915.95 1721.83 917.5 1719.92 918.209 1719.39 918.074 1723.9 919.578 1726.15 923.894 1726.15 931.022 1726.15 934.448 1725.36 936.205 1723.78 936.293 1720.51 942.894 1716.15 946.194 1710.69 946.194 1706.31 946.194 1702.59 944.467 1699.52 941.012 1696.66 937.732 1695.23 933.456 1695.23 928.186 1695.23 919.681 1700.1 912.32 1709.84 906.103 1720.38 899.289 1732.96 895.882 1747.56 895.882ZM2370.91 895.825 2370.91 1005.64C2370.91 1012.54 2372.41 1017.4 2375.41 1020.24 2377.15 1021.7 2383.4 1022.52 2394.14 1022.69L2394.14 1036.18 2324.46 1036.18 2324.46 1022.73C2336.25 1022.31 2343.29 1020.89 2345.57 1018.48 2347.7 1016.3 2348.76 1012.02 2348.76 1005.64L2348.76 928.958C2348.76 923.422 2347.43 919.819 2344.76 918.15 2341.81 916.286 2335.84 914.911 2326.83 914.022L2326.83 900.669C2340.14 900.669 2354.83 899.054 2370.91 895.825ZM2043.02 895.776 2043.02 984.343C2043.02 997.085 2045.97 1006.8 2051.87 1013.49 2056.91 1019.24 2063.86 1022.12 2072.72 1022.12 2087.22 1022.12 2099.65 1013.67 2110.01 996.774L2110.01 928.913C2110.01 922.428 2108.44 918.226 2105.28 916.308 2103.87 915.417 2098.21 914.662 2088.32 914.044L2088.32 900.633C2104.08 900.547 2118.7 898.928 2132.16 895.776L2132.16 1002.07C2132.16 1010.6 2133.29 1016.19 2135.56 1018.85 2137.27 1020.87 2142.38 1022.19 2150.89 1022.8L2150.89 1036.15 2113.96 1036.15 2111.94 1017.01C2101.01 1033 2086.71 1041 2069.05 1041 2050.38 1041 2036.87 1033.55 2028.52 1018.64 2023.58 1009.85 2021.11 998.733 2021.11 985.287L2021.11 928.913C2021.11 922.597 2019.65 918.422 2016.75 916.387 2015.36 915.445 2009.54 914.666 1999.3 914.048L1999.3 900.635C2013.59 900.547 2028.16 898.928 2043.02 895.776ZM2432.86 859.742 2446.33 859.742 2446.33 900.586 2490.43 900.586 2490.43 916.987 2446.33 916.987 2446.33 995.67C2446.33 1004.69 2447.5 1011.25 2449.83 1015.36 2451.96 1018.91 2456 1020.68 2461.93 1020.68 2471.65 1020.68 2480.35 1015.68 2488.02 1005.68L2496 1017.4C2485.99 1032.65 2473.05 1040.28 2457.19 1040.28 2444.18 1040.28 2434.89 1034.89 2429.31 1024.1 2425.89 1017.45 2424.19 1008.57 2424.19 997.44L2424.19 916.987 2396.21 916.987 2396.21 901.271C2409.67 898.787 2419.17 893.639 2424.72 885.828 2428.76 880.092 2431.47 871.397 2432.86 859.742ZM2204.29 842.508 2204.29 965.296 2250.1 926.06C2252.06 922.804 2253.04 920.102 2253.04 917.953 2253.04 917.053 2252.04 916.387 2250.05 915.954 2246.91 915.253 2241.66 914.617 2234.31 914.044L2234.31 900.652 2301.38 900.652 2301.38 913.971C2292.96 914.875 2286.11 917.115 2280.85 920.692 2277.07 923.181 2271.4 927.689 2263.84 934.216L2237.6 955.843 2281.34 1008.27C2288.05 1016.44 2298.52 1021.32 2312.76 1022.9L2312.76 1036.18 2242.01 1036.18 2242.01 1022.8C2254.66 1021.94 2260.98 1020.67 2260.98 1019 2260.98 1018.35 2260.24 1016.97 2258.78 1014.87L2258.4 1014.24 2222.97 969.654 2204.29 985.285 2204.29 1005.64C2204.29 1012.51 2205.49 1016.95 2207.89 1018.96 2210.25 1020.98 2216.48 1022.25 2226.58 1022.78L2226.58 1036.18 2160.1 1036.18 2160.1 1022.74C2170.9 1022.31 2177.41 1020.89 2179.63 1018.48 2181.63 1016.43 2182.62 1012.15 2182.62 1005.64L2182.62 875.763C2182.62 869.447 2181.64 865.605 2179.69 864.235 2177.15 862.397 2170.7 861.259 2160.34 860.821L2160.34 847.366C2176.92 847.28 2191.57 845.66 2204.29 842.508ZM1881.86 842.508 1881.86 918.376C1882.08 912.956 1885.13 908.604 1891.01 905.318 1900.51 898.977 1910.44 895.807 1920.81 895.807 1939.58 895.807 1955.02 903.525 1967.13 918.963 1977.45 932.279 1982.62 948.208 1982.62 966.75 1982.62 984.741 1978.94 999.964 1971.59 1012.42 1960.3 1031.47 1942.82 1041 1919.15 1041 1906.68 1041 1896.19 1038.16 1887.68 1032.47 1882.96 1029.39 1880.26 1025.85 1879.57 1021.86L1875.1 1039.11 1859.95 1039.11 1859.95 875.76C1859.95 869.893 1858.8 866.089 1856.51 864.346 1854.21 862.584 1848.16 861.395 1838.37 860.779L1838.37 847.414C1855.83 847.243 1870.32 845.608 1881.86 842.508ZM1561.19 842.508 1561.19 965.296 1607 926.06C1608.96 922.804 1609.94 920.102 1609.94 917.953 1609.94 917.053 1608.94 916.387 1606.95 915.954 1603.81 915.253 1598.56 914.617 1591.21 914.044L1591.21 900.652 1658.28 900.652 1658.28 913.971C1649.86 914.875 1643.01 917.115 1637.75 920.692 1633.97 923.181 1628.3 927.689 1620.74 934.216L1594.5 955.843 1638.24 1008.27C1644.95 1016.44 1655.42 1021.32 1669.66 1022.9L1669.66 1036.18 1598.91 1036.18 1598.91 1022.8C1611.56 1021.94 1617.88 1020.67 1617.88 1019 1617.88 1018.35 1617.14 1016.97 1615.68 1014.87L1615.3 1014.24 1579.87 969.654 1561.19 985.285 1561.19 1005.64C1561.19 1012.51 1562.39 1016.95 1564.79 1018.96 1567.15 1020.98 1573.38 1022.25 1583.48 1022.78L1583.48 1036.18 1517 1036.18 1517 1022.74C1527.8 1022.31 1534.31 1020.89 1536.53 1018.48 1538.53 1016.43 1539.52 1012.15 1539.52 1005.64L1539.52 875.763C1539.52 869.447 1538.54 865.605 1536.59 864.235 1534.05 862.397 1527.6 861.259 1517.24 860.821L1517.24 847.366C1533.82 847.28 1548.48 845.66 1561.19 842.508ZM2359.12 836C2362.34 836 2365.37 836.852 2368.19 838.555 2373.87 842.207 2376.72 847.161 2376.72 853.417 2376.72 857.959 2375.09 861.938 2371.85 865.356 2368.46 869.009 2364.22 870.835 2359.12 870.835 2356.14 870.835 2353.38 870.156 2350.84 868.798 2344.71 865.427 2341.65 860.3 2341.65 853.417 2341.65 848.12 2343.67 843.736 2347.7 840.265 2351.01 837.422 2354.82 836 2359.12 836Z"
        fill="#217867"
        fill-rule="evenodd"
    />
  </g>
</svg>
